<svg xmlns="http://www.w3.org/2000/svg" viewBox="0 0 800 600" width="800" height="600">
  <rect width="800" height="600" fill="#0a1a2b"/>
  <!-- جدارُ الكهف وفتحتُه -->
  <path d="M0 0h800v600H0z" fill="#132437"/>
  <path d="M250 600c0-150 40-250 150-250s150 100 150 250z" fill="#2c4159" opacity=".35"/>
  <ellipse cx="400" cy="190" rx="150" ry="110" fill="#3f6a8e" opacity=".35"/>
  <ellipse cx="400" cy="190" rx="120" ry="86" fill="#5b8fb5" opacity=".3"/>
  <!-- النائمون السبعة -->
  <g>
    <g transform="translate(180 470)"><ellipse cx="0" cy="0" rx="54" ry="20" fill="#4e8a6b"/><circle cx="-46" cy="-10" r="15" fill="#e8d9b5"/></g>
    <g transform="translate(300 500)"><ellipse cx="0" cy="0" rx="54" ry="20" fill="#d9a441"/><circle cx="-46" cy="-10" r="15" fill="#e8d9b5"/></g>
    <g transform="translate(420 470)"><ellipse cx="0" cy="0" rx="54" ry="20" fill="#7a9ec4"/><circle cx="-46" cy="-10" r="15" fill="#e8d9b5"/></g>
    <g transform="translate(540 500)"><ellipse cx="0" cy="0" rx="54" ry="20" fill="#b5735e"/><circle cx="-46" cy="-10" r="15" fill="#e8d9b5"/></g>
    <g transform="translate(250 550)"><ellipse cx="0" cy="0" rx="50" ry="18" fill="#6d7d93"/><circle cx="-42" cy="-9" r="14" fill="#e8d9b5"/></g>
    <g transform="translate(380 570)"><ellipse cx="0" cy="0" rx="50" ry="18" fill="#8a6fa8"/><circle cx="-42" cy="-9" r="14" fill="#e8d9b5"/></g>
    <g transform="translate(510 560)"><ellipse cx="0" cy="0" rx="50" ry="18" fill="#4e8a6b"/><circle cx="-42" cy="-9" r="14" fill="#e8d9b5"/></g>
  </g>
  <!-- الكلبُ باسطٌ ذراعيه بالوصيد -->
  <g transform="translate(672 520)" fill="#c9b184">
    <ellipse cx="0" cy="0" rx="40" ry="15"/><circle cx="34" cy="-12" r="13"/>
    <rect x="30" y="-2" width="48" height="9" rx="4"/><rect x="18" y="10" width="48" height="9" rx="4"/>
    <path d="M24 -22l-12-14 2 18z"/>
  </g>
  <g fill="#f4e3b0" opacity=".8">
    <text x="400" y="120" font-size="46" text-anchor="middle">💤</text>
  </g>
</svg>
